<?xml version="1.0" encoding="UTF-8" standalone="no"?>
<!-- Uploaded to: SVG Repo, www.svgrepo.com, Generator: SVG Repo Mixer Tools -->

<svg
   width="800px"
   height="800px"
   viewBox="-1.5 0 20 20"
   version="1.1"
   id="svg1"
   sodipodi:docname="cube.svg"
   inkscape:version="1.3.2 (091e20ef0f, 2023-11-25, custom)"
   xmlns:inkscape="http://www.inkscape.org/namespaces/inkscape"
   xmlns:sodipodi="http://sodipodi.sourceforge.net/DTD/sodipodi-0.dtd"
   xmlns="http://www.w3.org/2000/svg"
   xmlns:svg="http://www.w3.org/2000/svg">
  <sodipodi:namedview
     id="namedview1"
     pagecolor="#ffffff"
     bordercolor="#000000"
     borderopacity="0.25"
     inkscape:showpageshadow="2"
     inkscape:pageopacity="0.0"
     inkscape:pagecheckerboard="0"
     inkscape:deskcolor="#d1d1d1"
     inkscape:zoom="0.93875"
     inkscape:cx="186.41811"
     inkscape:cy="124.63382"
     inkscape:window-width="3438"
     inkscape:window-height="1392"
     inkscape:window-x="0"
     inkscape:window-y="23"
     inkscape:window-maximized="1"
     inkscape:current-layer="svg1" />
  <title
     id="title1">9gag [#152]</title>
  <desc
     id="desc1">Created with Sketch.</desc>
  <defs
     id="defs1" />
  <path
     d="m -4.945946,-3.996 c 1.148161,0.691 2.308028,1.363 3.459116,2.049 1.15889,-0.682 2.31681,-1.365 3.47862,-2.045 -1.16181,-0.677 -2.31778,-1.363 -3.47862,-2.042 -1.154015,0.677 -2.302176,1.365 -3.459116,2.038 m -5.024789,-1.003 c 2.827968,-1.67 5.655936,-3.337 8.485855,-5.001 2.82797,1.665 5.65984,3.325 8.48391,4.996 C 6.99503,-1.665 6.99403,1.674 7,5.014 4.17691,6.688 1.34114,8.336 -1.48683,10 -4.322603,8.322 -7.173007,6.671 -10,4.979 -8.872325,4.32 -7.745625,3.66 -6.615023,3.006 -4.905951,4.016 -3.192001,5.02 -1.48683,6.037 0.21541,5.012 1.93912,4.028 3.63453,2.993 3.61993,1.657 3.63356,0.321 3.62653,-1.015 1.92429,-0.002 0.21814,1.008 -1.48703,2.017 -4.316946,0.366 -7.139061,-1.302 -9.969956,-2.955 c 0,-0.682 9.76e-4,-1.363 -9.75e-4,-2.044"
     id="9gag-[#152]"
     style="fill:#000000;fill-rule:evenodd;stroke:none;stroke-width:1" />
</svg>
