<?xml version="1.0" encoding="UTF-8" standalone="no"?>
<!-- Created with Inkscape (http://www.inkscape.org/) -->

<svg
   version="1.1"
   id="svg1"
   width="2666.6667"
   height="2666.6667"
   viewBox="0 0 2666.6667 2666.6667"
   sodipodi:docname="drawing.svg"
   inkscape:version="1.3.2 (091e20ef0f, 2023-11-25, custom)"
   xmlns:inkscape="http://www.inkscape.org/namespaces/inkscape"
   xmlns:sodipodi="http://sodipodi.sourceforge.net/DTD/sodipodi-0.dtd"
   xmlns="http://www.w3.org/2000/svg"
   xmlns:svg="http://www.w3.org/2000/svg">
  <defs
     id="defs1" />
  <sodipodi:namedview
     id="namedview1"
     pagecolor="#ffffff"
     bordercolor="#000000"
     borderopacity="0.25"
     inkscape:showpageshadow="2"
     inkscape:pageopacity="0.0"
     inkscape:pagecheckerboard="0"
     inkscape:deskcolor="#d1d1d1"
     inkscape:zoom="0.43434032"
     inkscape:cx="-140.44287"
     inkscape:cy="1130.45"
     inkscape:window-width="3438"
     inkscape:window-height="1392"
     inkscape:window-x="0"
     inkscape:window-y="23"
     inkscape:window-maximized="1"
     inkscape:current-layer="g1">
    <inkscape:page
       x="0"
       y="0"
       inkscape:label="1"
       id="page1"
       width="2666.6667"
       height="2666.6667"
       margin="0"
       bleed="0" />
  </sodipodi:namedview>
  <g
     id="g1"
     inkscape:groupmode="layer"
     inkscape:label="1">
    <path
       id="path157"
       d="m -221.84018,-395.58011 -24.90207,12.07073 c -1.04115,0.51413 -104.91592,52.15062 -111.1359,148.58781 -1.10775,17.21216 1.42675,29.64511 7.33824,35.94338 3.2695,3.49385 7.67478,5.18819 13.47527,5.18819 31.6608,0 84.28113,-46.79885 102.37905,-91.02698 13.02892,-31.84192 14.78984,-74.142 12.84541,-110.76313 z m 443.6952,-0.0351 c -1.9513,36.64449 -0.1869,78.95626 12.8303,110.79818 18.1003,44.23981 70.7183,91.02698 102.3733,91.02698 5.8074,0 10.2127,-1.69434 13.4845,-5.18819 5.901,-6.30996 8.4367,-18.73122 7.3383,-35.94338 -6.2282,-96.43719 -110.0971,-148.07368 -111.1488,-148.58781 z M -453.71239,47.519074 c -18.61788,41.7042 -48.72105,129.798196 -13.97305,206.242096 47.06878,103.5535 199.99877,117.447 201.53884,117.5756 l 2.0928,0.1753 1.74576,1.1684 c 1.25971,0.8414 31.38739,21.2553 77.94782,81.1181 40.09394,51.543 137.69264,70.7533 189.7965404,70.7533 49.8006996,0 138.5490996,-18.8364 178.9211996,-70.7533 46.5652,-59.8628 76.6894,-80.2767 77.9514,-81.1181 l 1.7411,-1.1684 2.0916,-0.1753 c 1.5425,-0.1286 154.5471,-14.174 201.5446,-117.5756 34.7515,-76.4439 4.639,-164.537896 -13.9754,-206.242096 -2.6992,20.671 -7.4784,50.4564 -15.3659,81.059696 -19.5141,75.7895 -47.8621,117.295 -84.2262,123.3596 -9.3714,1.5541 -18.252,2.3487 -26.4199,2.3487 -27.0627,0 -47.7688,-8.869 -59.8628,-25.6489 -15.8217,-21.9446 -16.5578,-56.4273 -2.1268,-99.7089 2.6993,-8.0977 5.2934,-16.0202 7.8408,-23.7675 22.8444,-69.771796 40.8979,-124.878796 87.1124,-164.935196 74.4925,-64.560304 93.7846,-140.384964 57.3621,-225.370744 -32.2976,-75.35724 -97.8977,-93.44579 -137.814,-97.14997 9.2195,6.34501 20.0282,14.5947 30.9889,24.74906 38.3271,35.51104 60.0848,77.54236 62.9242,121.57185 1.4256,22.1199 -2.5122,38.31546 -11.7084,48.13095 -6.3334,6.754 -15.0972,10.32964 -25.345,10.32964 -0.011,0 -0.011,0 -0.011,0 -38.3973,0 -96.5541,-50.09406 -117.4353,-101.14629 -22.0732,-53.92677 -14.6181,-132.31046 -8.4717,-173.09148 -28.0678,32.00551 -76.9232,99.88429 -58.7879,167.91498 10.6334,39.86958 27.6119,62.90093 42.5922,83.22132 22.4239,30.40463 41.7744,56.64941 33.6649,121.548484 -9.313,74.4924999 -45.4435,107.8301 -77.1335,107.8419 0,0 0,0 -0.011,0 -21.1968,0 -40.8278,-14.1974 -53.8449,-38.9348 -14.9921,-28.4883 -12.2694,-59.5123 7.864,-89.7182 3.8677,-5.807604 8.016,-11.030804 12.0474,-15.599704 -19.5959,6.0296 -44.9059,17.656204 -59.7927,39.402204 -13.7534,20.0867 -16.4059,45.8173 -7.8875,76.46729994 14.4428,51.98710006 38.2337,74.58610006 61.2417,96.42560006 28.161,26.735396 54.768,51.998696 54.768,123.943796 0,115.9981 -125.8953,128.9218 -158.6894996,130.3123 v 0.1987 l -7.12920002,-0.035 -7.23649998,0.047 v -0.2103 C -39.96958,349.68457 -165.8637,336.76087 -165.8637,220.76287 c 0,-71.9452 26.59762,-97.2084 54.75752,-123.943896 23.0103,-21.8395 46.8047,-44.4385 61.2452,-96.42550006 8.5243,-30.68509994 5.8566,-56.43909994 -7.9283,-76.52579994 -14.9465,-21.7927 -40.2354,-33.384304 -59.7927,-39.390504 4.0395,4.5806 8.2029,9.8155 12.0859,15.646404 20.1404,30.2059 22.8584,61.2299 7.8687,89.7182 -13.0207,24.7374 -32.6563,38.9348 -53.859,38.9348 -31.68177,0 -67.81798,-33.3493001 -77.12744,-107.8419 -8.11303,-64.899034 11.24101,-91.143814 33.6507,-121.548444 14.98378,-20.32039 31.96454,-43.35174 42.59574,-83.22132 18.175,-68.15923 -30.71664,-135.97959 -58.78775,-167.96172 6.14752,40.78102 13.60843,119.19977 -8.46122,173.13822 -20.88009,51.04054 -79.05204,101.13463 -117.44463,101.14629 -10.25368,0 -19.01985,-3.57565 -25.35318,-10.32964 -9.19618,-9.80381 -13.13523,-25.99937 -11.7073,-48.13096 2.83948,-44.02948 24.59714,-86.06081 62.92312,-121.57185 10.96531,-10.15436 21.76585,-18.40404 30.98774,-24.74905 -39.91048,3.70418 -105.51885,21.79272 -137.81531,97.14997 -36.42131,84.98578 -17.12336,160.8104 57.35751,225.370704 46.22628,40.0565 64.27743,95.1752 87.12768,164.946896 2.53678,7.7473 5.13087,15.6698 7.82899,23.7559 14.42763,43.2816 13.69147,77.7526 -2.12786,99.7089 -12.09524,16.7798 -32.79658,25.6488 -59.86162,25.6488 -8.15971,0 -17.04389,-0.7946 -26.41301,-2.3487 -36.37106,-6.0646 -64.71095,-47.5701 -84.23443,-123.3596 -7.8781,-30.603296 -12.65614,-60.388596 -15.36241,-81.059596 z M 5.4363204,540.84087 c -57.3692004,0 -158.6826004,-20.519 -202.6478204,-77.0516 -38.83774,-49.9304 -65.96705,-71.5361 -72.57849,-76.4556 -9.2616,-0.9698 -44.73993,-5.4803 -85.39475,-20.4956 -62.09816,-22.938 -106.1253,-59.711 -127.32325,-106.3346 -21.0776,-46.3782 -23.0816,-103.6 -5.80049,-165.484396 12.94709,-46.3664 31.84892,-78.6992 32.64702,-80.0546 l 13.11303,-22.2251001 2.01684,25.7306001 c 4.47072,57.0817 29.19407,207.422296 89.09427,217.401396 8.48338,1.4138 16.46782,2.1384 23.73479,2.1384 21.92125,0 37.61786,-6.3568 46.65395,-18.8949 12.63039,-17.5276 12.5942,-46.9273 -0.1075,-85.0324 -2.70861,-8.1212 -5.31205,-16.0671 -7.85707,-23.8376 -22.06849,-67.388096 -39.498,-120.613696 -82.31923,-157.725696 -33.24413,-28.8037 -56.53488,-60.201604 -69.21673,-93.317244 -17.86536,-46.64692 -15.32034,-97.37197 7.56026,-150.74953 18.19955,-42.47536 48.12628,-73.10203 88.94119,-91.03866 33.34578,-14.65313 65.6925,-16.83824 82.00954,-16.83824 7.73557,0 12.40144,0.47908 12.59775,0.50246 l 27.57565,2.89791 c -2.33346,-43.19985 -9.79796,-78.39539 -9.93696,-79.03807 l -5.35645,-24.77242 18.78027,17.01351 c 1.11012,1.01661 27.53127,25.13467 50.98906,62.00117 31.53352,49.54485 42.16692,98.37691 30.74942,141.17946 -11.4269,42.84928 -29.37989,67.20105 -45.21903,88.68996 -21.17928,28.722 -37.90878,51.41445 -30.60211,109.863394 8.037,64.2915 37.24036,93.586 60.97284,93.586 15.1767,-0.011 29.187,-10.7503001 39.4512,-30.2528 29.4395,-55.9249 -36.5848,-104.838704 -37.2544,-105.329504 l -24.1858,-17.58607 29.7631,2.90957 c 2.7752,0.2688 68.2913,7.1397 99.3479,52.419404 16.6361,24.2349 20.0622,54.5578 10.1906,90.0921999 -15.651,56.3339001 -42.2509,81.5971001 -65.7205,103.8805961 -27.7615,26.3616 -49.6909,47.1727 -49.6909,112.1302 0,102.9926 116.9036,113.1352 144.3625004,114.0934 l 5.24659998,0.093 5.03970002,-0.093 C 32.22912,333.93277 149.58262,323.95367 149.58262,220.76247 c 0,-64.9575 -21.9213,-85.7803 -49.6851,-112.1302 -23.4753,-22.283496 -50.0707,-47.546696 -65.717,-103.8805961 -9.8739,-35.5343999 -6.4502,-65.8572999 10.1777,-90.0921999 31.059,-45.279704 96.5774,-52.150604 99.3584,-52.419404 l 29.762,-2.90957 -24.1882,17.58607 c -0.1635,0.1285 -17.4458,12.8653 -30.4864,32.589704 -16.6512,25.1815 -18.9182,49.6501 -6.7656,72.7398 10.2594,19.5024999 24.2699,30.2528 39.4372,30.2528 0.011,0 0.011,0 0.011,0 23.7324,-0.011 52.9453,-29.2945 60.9729,-93.586 7.3033,-58.448944 -9.4181,-81.141394 -30.6033,-109.863394 -15.845,-21.48891 -33.7934,-45.84068 -45.2214,-88.68996 -11.4163,-42.80255 -0.7829,-91.63461 30.7553,-141.17946 23.4636,-36.8665 49.872,-60.98456 50.9821,-62.00117 l 18.778,-17.00183 -5.3518,24.76074 c -0.1402,0.64268 -7.5836,35.84991 -9.9206,79.03807 l 27.5534,-2.89791 c 0.1987,-0.0234 4.8611,-0.50246 12.6083,-0.50246 16.3124,0 48.6568,2.18511 82.0177,16.83824 40.8043,17.93663 70.7299,48.5633 88.9353,91.03866 22.8794,53.37756 25.4151,104.10261 7.5486,150.74953 -12.6784,33.11564 -35.9668,64.513544 -69.2109,93.317244 -42.8142,37.112 -60.2483,90.3259 -82.3098,157.702296 -2.5473,7.7822 -5.1532,15.7281 -7.8641,23.861 -12.7017,38.1051 -12.7485,67.5164 -0.1168,85.0441 9.0443,12.5264 24.7373,18.8832 46.6586,18.8832 7.2681,0 15.2607,-0.7246 23.7325,-2.1384 59.9445,-9.9791 84.6467,-160.319696 89.0988,-217.401396 l 2.0099,-25.7423001 13.1223,22.2368001 c 0.7946,1.3554 19.7011,33.6882 32.6482,80.0546 17.2822,61.884396 15.2724,119.106196 -5.8075,165.484396 -21.1968,46.6236 -65.2146,83.3966 -127.3208,106.3346 -40.6525,15.0153 -76.1402,19.5258 -85.3948,20.4956 -6.5904,4.9077 -33.7232,26.5018 -72.5762,76.4556 -47.3949,60.9496 -146.1691,77.0516 -191.7748996,77.0516"
       style="fill:none;fill-opacity:1;fill-rule:nonzero;stroke:#000000;stroke-width:0.116851;stroke-opacity:1" />
  </g>
</svg>
