<?xml version="1.0" encoding="UTF-8" standalone="no"?>
<!-- Uploaded to: SVG Repo, www.svgrepo.com, Generator: SVG Repo Mixer Tools -->

<svg
   width="800px"
   height="800px"
   viewBox="0 0 20 20"
   version="1.1"
   id="svg1"
   sodipodi:docname="spiral.svg"
   inkscape:version="1.3.2 (091e20ef0f, 2023-11-25, custom)"
   xmlns:inkscape="http://www.inkscape.org/namespaces/inkscape"
   xmlns:sodipodi="http://sodipodi.sourceforge.net/DTD/sodipodi-0.dtd"
   xmlns="http://www.w3.org/2000/svg"
   xmlns:svg="http://www.w3.org/2000/svg">
  <sodipodi:namedview
     id="namedview1"
     pagecolor="#ffffff"
     bordercolor="#000000"
     borderopacity="0.25"
     inkscape:showpageshadow="2"
     inkscape:pageopacity="0.0"
     inkscape:pagecheckerboard="0"
     inkscape:deskcolor="#d1d1d1"
     inkscape:zoom="1.4825"
     inkscape:cx="400"
     inkscape:cy="400"
     inkscape:window-width="3438"
     inkscape:window-height="1392"
     inkscape:window-x="0"
     inkscape:window-y="23"
     inkscape:window-maximized="1"
     inkscape:current-layer="svg1" />
  <title
     id="title1"> spiral [#33]</title>
  <desc
     id="desc1">Created with Sketch.</desc>
  <defs
     id="defs1" />
  <path
     d="M 14,9 V 7 C 14,6.448 13.552,6 13,6 H 7 C 6.448,6 6,6.448 6,7 v 6 c 0,0.552 0.448,1 1,1 h 10 c 0.552,0 1,-0.448 1,-1 V 3 C 18,2.448 17.552,2 17,2 H 3 C 2.448,2 2,2.448 2,3 v 14 c 0,0.552 0.448,1 1,1 h 16 c 0.552,0 1,0.448 1,1 0,0.552 -0.448,1 -1,1 H 2 C 0.896,20 0,19.105 0,18 V 2 C 0,0.895 0.896,0 2,0 h 16 c 1.105,0 2,0.895 2,2 v 12 c 0,1.105 -0.895,2 -2,2 H 6 C 4.896,16 4,15.105 4,14 V 6 C 4,4.895 4.896,4 6,4 h 8 c 1.105,0 2,0.895 2,2 v 4 c 0,1.105 -0.895,2 -2,2 H 10 C 8.896,12 8,11.105 8,10 8,8.895 8.896,8 10,8 c 1.105,0 2,0.895 2,2 h 1 c 0.552,0 1,-0.448 1,-1"
     id="-spiral-[#33]"
     style="fill:#000000;fill-rule:evenodd;stroke:none;stroke-width:1" />
</svg>
